<svg xmlns="http://www.w3.org/2000/svg" width="18" height="14" viewBox="0 0 18 14"><g transform="translate(-1867 -46)"><path d="M4,6H20M4,12H15.945M4,18h7.957" transform="translate(1864 41)" fill="none" stroke="#000" stroke-linecap="round" stroke-linejoin="round" stroke-width="2"/><g transform="translate(1867 58)" fill="#fff"><path d="M 9 1.5 L 1 1.5 C 0.7243000268936157 1.5 0.5 1.275699973106384 0.5 1 C 0.5 0.7243000268936157 0.7243000268936157 0.5 1 0.5 L 9 0.5 C 9.275699615478516 0.5 9.5 0.7243000268936157 9.5 1 C 9.5 1.275699973106384 9.275699615478516 1.5 9 1.5 Z" stroke="none"/><path d="M 1 0 L 9 0 C 9.552289962768555 0 10 0.4477200508117676 10 1 C 10 1.552279949188232 9.552289962768555 2 9 2 L 1 2 C 0.4477100372314453 2 0 1.552279949188232 0 1 C 0 0.4477200508117676 0.4477100372314453 0 1 0 Z" stroke="none" fill="#0abbab"/></g></g></svg>