<svg xmlns="http://www.w3.org/2000/svg" width="2564" height="1992" viewBox="0 0 2564 1992"><g transform="translate(310 500)"><g transform="translate(-310 -500)"><path d="M30.661,616.767c49.592,132.337,88.19,269.292,127.385,404.982,41.792,144.62,41.91,296.779,57.647,444.546,9.427,89.048,27.907,174.862,86.837,245.648,41.263,49.514,90.747,82.863,152.157,102.106,85.554,26.811,178.623,27.36,262.492,58.66,19.412,7.244,39.048,17.008,51.934,33.839,10.691,14,15.786,31.585,22.871,47.122,6.31,13.832,16.952,19.341,30.445,20.8,41.155,4.441,94.02-20.321,136.743-27.869,9.025-1.6,20.578-3.294,28.515-8.048,5.664-3.4,5.5-8.234,5.193-12.44-2.362-32.653-.882-66.914-9.064-99.086-9.378-36.878-32.777-62.385-64.78-78.422-54.874-27.448-125.651-29.487-187.991-40.368-61.527-10.783-123.466-22.546-182.445-43.671-49.925-17.851-96.715-43.132-136.047-79.01-49.269-44.985-75.882-107.125-92.237-169.863-40.175-154.315-36.844-319.7-75.2-476.287-19.078-77.912-43.252-155.188-67.093-231.757-20.411-65.571-42.194-131.71-71.62-193.291-8.28-17.341-18.383-40.682-36.814-49.994-8.946-4.519-17.971-3.7-26.6-2.068C30.171,464.716,17.3,470.451,9.6,481.263c-25.477,35.761,6.134,100.292,21.058,135.455" fill="#137d9f"/><path d="M128.556,510.76c30.409,70.346,54.266,143.29,76.739,216.4,14.763,48.041,28.948,96.307,43.211,144.515,21.767,73.532,34.873,148.868,45.536,224.646,11.575,82.238,20.914,165.614,37.492,246.627,18.815,91.935,49.047,179.644,124.286,241.342,59.838,49.021,133.183,75.993,207.352,94.827,46.1,11.7,92.856,20.373,139.638,28.609,43.633,7.687,89.266,11.687,130.466,29.04,55.414,23.344,81.664,69.15,108.64,119.1,10,18.51,26.486,31.276,44.457,40.747,43.073,22.707,93.573,32.854,142.237,40.874,6.357,1.049,12.948,2.078,19.766,2.853a263.822,263.822,0,0,0,40.9,1.412c.981,0,1.962-.069,2.943-.137,9.574-.716,20.933-1.3,29.37-6.745,4.983-3.216,4.826-8.471,3.924-13.657-17.588-97.729-41.818-200.007-127.641-257.519-51.009-34.2-114.888-38.805-175.06-48.257-69.039-10.785-138.313-21.893-206.342-36.639-83.479-18.089-169.508-40.835-244.256-84.258-78.27-45.482-120.215-114.073-148.78-197.174-36.589-106.445-52.206-220.1-73.669-331.11-21.385-110.622-54.089-217.773-87.7-325-20.208-64.463-41.268-130.044-70.55-190.027-8.534-17.481-18.412-34.844-32.9-48.512-10.437-9.893-23.405-19.7-37.58-23.05-9.044-2.108-22.366.775-28.134,8.745-10.859,14.981-1.1,38.09,4.689,53.237,9.005,23.53,20.257,46.325,31,69.11" fill="#0abbab"/><path d="M197.91,430.411c31.146,62.845,54.224,129.109,75.546,195.687,14.705,46.051,28.7,92.5,42.881,138.751,22.95,74.887,38.469,151.616,53.773,228.364,16.725,83.813,34.381,168.047,60.253,249.1,15.225,47.677,33.734,95.267,60.2,138.271,27.038,43.905,67.547,75.533,112.31,100.019,91.173,49.853,195.738,73.936,296.833,94.062,54.165,10.778,108.663,19.753,163.18,28.522,50.841,8.181,103.447,12.737,150.269,35.8,74.262,36.488,116.986,107.4,156.485,176.708,13.392,23.515,30.96,43.709,50.665,61.669,43.234,39.4,88.987,70.674,144.661,90.809a169.834,169.834,0,0,0,21.333,6.614c12.647,2.724,25.97,4.566,39.028,1.96.765-.147,1.51-.333,2.225-.519,9.5-2.518,13.725-7.564,15.931-14.815,1.422-4.664-.3-10.964-2.765-17.47-45.1-119.3-89.409-254.309-194.885-331.792-54.449-40-119.878-45.542-185.758-55.036-81.8-11.758-163.8-23.584-244.893-38.506-103.781-19.087-210.943-41.073-307.46-85.821-46.077-21.379-89.663-50.783-120.074-92.19-26.029-35.459-45.773-76.268-62.508-116.509-43.077-103.625-69.154-213.912-96.9-322.974C401.7,796.682,368.551,694.763,334.484,592.726,315.387,535.534,296,477.216,269,424.2c-8.343-16.392-18.313-32.206-30.734-46.208-15.2-17.127-32.44-36.655-52.7-45.767-8.186-3.674-21.107-9.21-29.411-4.262-19.117,11.356,33.6,87.125,41.783,102.547" fill="#b2cd0d"/><path d="M272.461,394.9c32.657,56.492,56.18,117.142,77.6,178.468,15.7,44.891,30.538,90.43,45.35,135.586,24.819,75.643,42.712,153.855,62.871,230.89,22.749,86.949,49.578,173.477,84.364,256.121,19.463,46.205,41.505,92.715,71.081,133.772,34.03,47.225,82.833,79.075,135.7,101.736,111.831,47.922,235.218,69.759,354.553,89.656,62.665,10.443,125.565,19.474,188.435,28.437,48.539,6.923,100.7,9.482,146.381,28.506,90,37.488,145.871,125.516,193.37,205.748,14.97,25.309,31.313,49.794,48.607,73.642,32.706,45.107,67.334,102.756,118.9,127.977,4.9,2.422,10.153,4.834,15.156,5.884,10.585,2.3,18.639-1.5,22.67-7.668a16.636,16.636,0,0,0,.981-1.549c3.983-7.8,2.443-20.171.834-28.182a95.534,95.534,0,0,0-7.171-20.592c-61.566-131.4-138.828-274.615-258.977-357.2-53.767-36.949-113.793-43.519-178.478-51.922-81.892-10.639-164.186-19.347-245.783-30.859-104.739-14.778-213.381-31.477-311.547-73.3-95.635-40.753-152.953-115.2-190.593-208.807C606.326,1110.671,585.313,1003,557.8,897.9,531.34,797.1,493.308,701.087,455.471,604.3c-21.012-53.736-42.751-108.444-71.513-157.532a258.941,258.941,0,0,0-33.549-44.735c-23.8-25.741-49.873-50.863-79.8-69.249-12.655-7.776-26.7-16.464-41.064-20.308-16.677-4.462,3.492,23.622,5.955,27.3C247.809,358.165,260.876,376,272.422,394.9" fill="#eae9f9"/><path d="M382.551,406.429c39.825,53.12,71.621,110.877,98.249,171.212,19.1,43.3,35.07,88.8,52.081,132.571,28.6,73.52,42.7,153.5,59.326,231.263,18.736,87.635,39.011,176.535,71.052,259.769,17.815,46.239,38.237,91.321,71.9,128.944,36.649,40.955,82.925,68.854,134.084,88.008,105.3,39.348,220.176,52.091,331.23,64.246,58.208,6.4,116.525,11.851,174.723,18.35,49.022,5.48,102.534,7.528,149.232,24.507,92.406,33.545,165.458,115.553,227.6,188.093,20.972,24.507,42.531,48.592,64.032,72.539,51.1,56.855,98.641,133.57,175.341,158.234,7.844,2.529,16.256,4.745,24.629,4.835,14.393.135,32-5.953,39.865-19.157a25.046,25.046,0,0,0,1.451-2.715c6.265-14.175.157-29.516-4.814-43.131-3.03-8.293-8.422-16.821-13.628-23.918-57-77.784-127.652-148.911-200.871-212.825-77.18-67.452-160.389-131.061-250.226-178.927-30.629-16.3-63.022-31.712-97.063-40.416-31.7-8.1-65.885-9.41-98.426-11.557-74.444-4.9-149.271-5.137-223.666-7.842-93.739-3.343-192.165-7.362-281.5-39.21-44.8-15.969-86.111-41.808-117.74-77.607-29.246-33.113-42.718-77.039-50.669-119.523-18.589-99.153-10.716-202.012-16.285-302.783-2.775-50.258-8.324-100.771-21.7-149.411-12.295-44.729-33.119-86.528-54.061-127.5-26.472-51.836-56.091-103.4-92.239-148.147a266.233,266.233,0,0,0-40.982-40.4c-34.168-27.29-71.189-53.591-112.475-68.942-14.922-5.548-31.482-10.077-46.757-11.812-22.168-2.529-2.157,23.056,2.765,29.212,14.707,18.4,30.933,35.534,45.551,54.012" fill="#fe9572"/><path d="M512.308,377.05c52.777,48.793,99.817,102.693,137,163.493,24.417,39.923,48.05,83.844,60.5,128.472,21.064,75.474,15.69,158.789,13.729,238.046-2.167,87.393-5.305,176.226,9.12,261.237,7.786,45.882,24.927,88.216,60.21,120.836,33.125,30.65,73.222,51.224,116.428,63.525,90.942,25.877,188.847,23.652,282.505,22.6,50.315-.568,100.64-1.686,150.956-.8,45.285.794,93.57.568,137.776,11.468,123.106,30.385,237.564,109.956,340.273,180.676,36.224,24.946,72.85,49.744,108.75,75.072,57.856,40.8,112.771,86.108,170.3,127.668,49.727,35.933,103.7,68.21,164.243,80.639,13.072,2.686,27.2,5,40.029,3.6,17.994-1.96,44.677-8.537,47.658-31.248a21.574,21.574,0,0,0,.186-3.921c-.981-22.417-22.476-42.687-36.842-57.507a358.081,358.081,0,0,0-28.82-26.259c-103.347-85.726-220.923-158.112-338.175-225.44-119.851-68.71-243.791-133.588-371.869-183.558-71.33-27.827-139.688-46.794-216.951-46.068-64.956.637-129.716,8.635-194.162,14.7-79.891,7.528-165.086,15.771-243.389-7.44-41.6-12.331-80.352-36.1-109.476-68.387-29.418-32.542-37.822-77.346-37.469-118.886.834-98.723,35.636-198,53.571-296.7,8.5-46.784,14.827-94.714,11.306-142.341-3.422-46.264-20.083-85.912-40.8-126.443-28.173-55.164-61.514-108.947-101.709-155.289a282.987,282.987,0,0,0-45.442-41.942c-44.128-32.659-94.894-61.6-151.368-66.25-17.837-1.47-38.734-.676-55.022,7.224-46.108,22.358,50.423,84.6,66.947,99.223" fill="#f75f68"/><path d="M644,279.471C705.21,332.252,762.3,389.808,805.461,457.353c26.031,40.753,52.4,87.466,59.664,134.777,12.476,81.162-13.82,169.108-34.015,249.878-21.784,87.1-54.357,182.342-45.118,270.181,4.551,43.458,21.578,78.584,57.388,106.925a237.782,237.782,0,0,0,108.588,47.831c76.5,12.823,156.119-2.265,231.7-14.705,79.28-13,161.405-28.8,242.02-19.8,57.153,6.372,113.305,28.93,166.486,49.634,80.153,31.214,158.482,67.271,235.654,104.9,49.277,24.008,98.661,48.419,147.311,73.692,96.719,50.242,191.1,105.425,286.824,157.893,70.688,38.753,145.7,80.927,224.983,97.632,11,2.314,23.187,4,34.192,1.774,23.265-4.715,13.938-34.772,7.189-47.242a53.506,53.506,0,0,0-3.335-5.186c-20.333-28.91-51.572-50.977-80.349-70.359-13.418-9.058-27.522-17.842-41.46-26.361-132.412-80.956-271.827-152.609-412.321-219.732-129.832-62.036-262.225-122.218-398.216-168.451-67.373-22.9-130.617-40.566-202.316-35.174-58.624,4.411-116.336,17.558-173.773,28.94-71.875,14.244-148.9,29.587-221.893,13.166-39.331-8.823-77.25-29.557-105.586-58.31-31.485-31.939-39.8-75.349-37.948-117.287C855.5,913.327,899.591,814.4,929.8,717.7c14.967-47.87,29.121-97,33.348-147.188,3.727-43.841-4-81.427-23.03-120.248a603.879,603.879,0,0,0-101.4-146.972,487.088,487.088,0,0,0-45.9-42.6c-51.739-42.478-112.884-79.868-178.805-96.161-16.625-4.1-38.939-7.754-54.926.049-49.61,24.214,68.472,101.131,84.92,114.886" fill="#7158d1"/><path d="M1429.441,60.362c58.666,39.538,75.948,95.485,87.165,162.03,13.739,81.285,34.181,160.941,70.04,234.758,23.553,48.567,54.711,109.459,100.855,141.314,53.318,36.8,132.426,18.7,188.717,2.493,83.72-24.112,170.542-62.08,246.058-108.036,29.647-18.037,46.468-27.733,75.458-6.673,4.112,2.944,9.333,7.154,14.985,4.2,4.348-2.267,7.851-8.273,11.256-13.886A277.094,277.094,0,0,1,2249,441.232c8.41-9.99,19-22.62,19-36.536,0-9.136-4.465-15.564-8.243-20.363-6.575-8.371-21.011-33.277-34.78-27.654-11.639,4.76-22.336,14.828-33.366,22.129-28.99,19.244-59.962,36.094-90.718,51.55-103.328,51.943-252.7,114.582-357.306,31.079-73.22-58.469-121.974-135.73-139.109-226.691-11.472-60.932-18.715-121.687-51.178-175.661-12.159-20.206-28.46-36.653-48.538-47.831-20.491-11.384-51.2-16.212-73.19-4.5C1412.463,16.957,1412.562,47.791,1429.441,60.362Z" fill="#0abbab"/><path d="M1317.744,80.016c-14.71.274-24.418,15.328-19.417,28.264a17.856,17.856,0,0,0,4.305,6.223c32.469,29.479,59.437,67.328,73.45,108.617,6.168,18.2,11.15,37.006,15.818,55.773,8.826,35.448,17.936,71.1,26.134,106.686,9.11,39.525,17.652,79.539,27.458,118.858,4.315,17.219,8.914,34.575,13.729,51.638,15.073,52.922,33.607,105.461,58.544,154.208,18.387,35.957,40.265,66.956,82.678,75.462,42.8,8.575,90-1.362,130.964-11.662,113.362-28.529,224.37-81.176,332.966-127.169,19.309-8.173,41.618-20.081,61.594-18.111,16.671,1.646,32.361,10.241,48.326,18.258,3.354,1.676,7.041,3.4,10.611,3.793a8.6,8.6,0,0,0,7.178-2.225c3.334-3.146,5.06-9.888,6.413-16.582,2.187-10.78,4.256-21.649,6.276-32.478.716-3.793,1.412-7.536,2.148-11.2,2.765-13.838,4.962-29.3.647-43.121a54.614,54.614,0,0,0-13.072-21.561c-11.826-12.662-29.586-34.566-50.013-30.224-15.347,3.263-29.958,11.594-44.2,18.4-32,15.269-64.507,29.724-96.7,44.415-38.343,17.5-77.343,34.526-116.7,48.913-60.015,21.913-132.494,46.826-197.775,35.281-57.073-10.143-94.318-61.418-122.943-106.559-37.745-59.517-59.692-126.933-75.156-196.163-7.168-32.057-12.346-65.054-19.681-96.846-6.364-27.6-14.827-55.068-27.654-79.765a155.637,155.637,0,0,0-40.089-49.393C1380.878,93.168,1347.409,79.458,1317.744,80.016Z" fill="#ffd300"/><path d="M1196.1,127.278c-10.091-.98-28.2-.088-28.1,14.886a9.675,9.675,0,0,0,1.708,4.988c23.225,38.8,55.362,70.989,73.541,112.7,8.373,19.217,15.706,39.2,22.508,59.072,12.761,37.6,24.942,76.251,35.769,114.2,12.132,42.511,20.8,86.874,29.909,130.58,4.162,19.923,8.3,39.894,12.6,59.778,13.144,60.669,27.926,121.515,48.785,179.657,14.5,40.414,29.7,90.049,66.542,116.547,38.115,27.439,89.433,21.344,132.516,14.592,146.994-23.078,284.565-92.332,429.871-126.572,28.81-6.781,61.4-16.571,90.16-9.31,23.637,5.978,46.2,19.374,68.9,28.87,4.358,1.823,9.119,3.4,13.507,3.636,3.092.167,5.948-.578,8.01-3.107,2.807-3.43,3.652-10.348,3.671-17.443,0-11.828-.658-23.745-1.767-35.582-.383-4.135-.884-8.251-1.345-12.24-1.718-14.993-4.506-30.849-11.308-44.324a82.236,82.236,0,0,0-17.188-22.294c-19.141-17.443-39.863-36.611-67.73-35.279-19.632.98-38.675,8.046-57.168,13.964-36.486,11.671-72.4,24.323-107.976,38.4-42.14,16.659-84.417,34.22-126.881,49.772-67.416,24.675-144.295,52.575-217.591,49.91-73.885-2.685-103.814-62.718-131.858-121.466-38.675-81.043-61.477-169.122-81-257.289-8.206-37.043-16.982-74.115-26.376-110.736-7.44-29.017-15.774-58.288-27.946-85.041a197.859,197.859,0,0,0-35.72-53.437C1269.164,158,1231.392,130.58,1196.1,127.278Z" fill="#fe9572"/><path d="M1067.676,152.948c-12.88-5.24-30.958-12.263-44.525-7.2a2.989,2.989,0,0,0-2.031,2.194c-1.962,15.573,20.6,35.31,29.722,46.338,17.392,20.951,35.441,41.823,50.028,64.644,12.752,19.932,24.8,40.746,35.7,61.706a886.2,886.2,0,0,1,53.451,126.634c14.822,44.33,26.122,87.172,31.488,133.814,2.354,20.49,4.081,41.333,5.64,62,4.7,62.068,7.583,125.2,19.324,185.862,8.828,45.555,21.384,95.919,46.447,136.145,26.662,42.8,70.627,65.33,118.056,70.521,171.909,18.9,347.065-81.6,519.2-99.445,57.708-5.984,114.151,7.5,166.877,30.422,51.264,22.273,100.261,56.241,153.154,75.477,6.209,2.253,11.624,3.516,15.244,2.674,2.531-.6,3.973-2.556,3.443-7.14-.618-5.377-4.1-14.31-8.181-23.625-6.641-15.162-13.733-30.3-20.943-45.192q-3.708-7.625-7.279-14.692c-8.1-16.288-16.3-33.4-27.133-47.572a162.2,162.2,0,0,0-22.777-24.653c-26.819-23.086-55.913-45.937-92.492-49.365-61.328-5.749-132.75,14.986-190.184,31.539-45.29,13.056-90.589,28.287-135.82,42.117-75.228,22.929-154.988,46.867-234.5,48.052-36.089.539-70.549-7.395-96.769-33.556-25.249-25.192-38.727-61.079-52.147-93.127-40.091-95.742-65.124-197.293-90.511-298.2-10.79-43.018-24.317-85.37-36.873-127.927-9.456-32.117-19.266-64.556-32.312-94.92a286.409,286.409,0,0,0-34.8-60.119C1155.744,206.182,1113.848,171.735,1067.676,152.948Z" fill="#eae9f9"/><path d="M913.663,138.487c-17.476-9.251-37.375-18.845-57.656-21.246a28.653,28.653,0,0,0-5.708-.167c-19.114.784,19.359,35.279,22.851,38.552,22.066,20.8,45.515,40.454,66.188,62.435,18.114,19.266,35.767,39.513,52.046,60.269,30.971,39.513,58.323,82.573,79.438,128.044s28.146,88.659,25.175,138.471c-1.275,21.462-4.07,43.4-7.345,64.826C1078.629,675.027,1062.467,740.784,1055,806.3c-5.394,47.235-5.423,94.843,3.482,142.156,9.964,53.007,35.776,94.078,81.331,119.43,89.755,49.862,206.656,26.793,305.8,4.694,91.206-20.315,190.258-58.044,284.77-51.449,115.283,8.046,231.38,64.845,333.08,114.8,60.088,29.507,119.4,61.416,178.715,92.863,46.662,24.754,93.854,52.458,142.625,70.823,8.65,3.263,18.369,7.242,27.8,7.391,4.413.067,7.238-1.874,6.169-7.126-1.765-8.673-7.336-17.238-11.769-24.911-10.268-17.7-22.39-34.868-34.835-51.341q-6.679-8.82-13.24-16.964c-15.034-18.688-30.971-37.073-48.594-53.115a478.437,478.437,0,0,0-42.475-34.3c-68.719-49.43-143.184-92.059-221.876-121.586-42.69-16.032-87.891-29.194-134.024-32.722-41.464-3.165-84.037,3.685-124.2,11.966-45.407,9.369-90.794,22.118-135.937,33.829-75.9,19.707-153.864,39.033-232.929,38.582-37.61-.216-75.829-7.595-107.133-29.4-33.7-23.52-52.252-57.094-65.933-93.863-38.964-104.8-46.819-217.84-57.793-330.2-5.325-54.458-14.936-105.279-33.079-156.729-12.749-36.073-27.372-72.127-45.172-105.7a471.949,471.949,0,0,0-42.71-66.149C1026.053,213.946,972.32,169.523,913.663,138.487Z" fill="#1daacc"/><path d="M984.233,536.791c-7.613,91.142-47.345,181.069-76.648,268.693-28.725,85.9-64.464,198.592-14.215,277.023,43.234,67.475,142.378,84.517,221.273,79.5,81.338-5.184,160.508-27.627,239.972-44.189,37-7.713,74.372-14.583,112.142-17.072,42.734-2.8,81.809,3.92,122.816,15.857,151.266,44.1,296.273,114.8,436.415,185.1,107.983,54.186,214.641,111.821,321.78,168.152,40.978,21.561,82,43.121,123.817,63.045,25.036,11.907,51.691,25.843,79.16,30.587,6.956,1.205,12.6.461,13.1-3.92,2.492-21.815-24.968-51.5-39.32-68.082-24.232-28-54.349-51.392-84.585-73.1-182.8-131.264-392.759-237.4-604.81-315.8-66.514-24.589-141.583-54.421-213.729-53.176-60.108,1.039-119.539,15.465-177.833,28.862-126.554,29.087-353.546,82.665-405.394-76.638-27.587-84.772-14.951-182.941-1.658-273.427,12.489-85.115,37.7-179.531,21.141-264.263-13.185-67.475-58.009-133.93-102.42-185.861-51.387-60.066-117.9-107.7-189.458-141.182-19.994-9.349-42.881-19.12-65.376-19.855-38.26-1.254-7.014,30,5.886,40.994,25.242,21.5,53.957,38.9,79.464,59.781C848.83,269.44,907.31,328.144,948.111,398.382,974.109,443.169,988.569,484.869,984.233,536.791Z" fill="#eae9f9"/></g></g></svg>